<svg>
    <symbol viewBox="0 0 18 18" id="phone-empty" xmlns="http://www.w3.org/2000/svg">
        <path d="M6.5855 7.79184C7.44564 9.30294 8.69706 10.5544 10.2082 11.4145L11.0185 10.2797C11.1488 10.0972 11.3415 9.96881 11.5601 9.91881C11.7787 9.86881 12.008 9.90066 12.2047 10.0083C13.5011 10.7169 14.9329 11.143 16.4058 11.2587C16.6356 11.2769 16.8502 11.3811 17.0067 11.5505C17.1631 11.7198 17.25 11.942 17.25 12.1726V16.2628C17.25 16.4897 17.1659 16.7086 17.0138 16.8771C16.8618 17.0456 16.6526 17.1517 16.4268 17.1748C15.941 17.2253 15.4515 17.25 14.9583 17.25C7.11167 17.25 0.75 10.8883 0.75 3.04167C0.75 2.5485 0.77475 2.059 0.825167 1.57317C0.848317 1.34739 0.954402 1.13823 1.12289 0.986168C1.29138 0.834105 1.51029 0.749955 1.73725 0.750004H5.82742C6.05802 0.749975 6.28015 0.836859 6.44954 0.993334C6.61893 1.14981 6.72312 1.36438 6.74133 1.59425C6.85704 3.06715 7.28315 4.49888 7.99167 5.79534C8.09934 5.99202 8.13119 6.22135 8.08119 6.43993C8.03119 6.65852 7.90281 6.85119 7.72033 6.9815L6.5855 7.79184ZM4.27367 7.18959L6.01533 5.94567C5.52105 4.87876 5.18241 3.74644 5.00975 2.58334H2.5925C2.587 2.7355 2.58425 2.88859 2.58425 3.04167C2.58333 9.87634 8.12367 15.4167 14.9583 15.4167C15.1114 15.4167 15.2645 15.4139 15.4167 15.4075V12.9903C14.2536 12.8176 13.1212 12.479 12.0543 11.9847L10.8104 13.7263C10.3096 13.5317 9.82317 13.302 9.35475 13.0388L9.30158 13.0086C7.50361 11.9853 6.01467 10.4964 4.99142 8.69842L4.96117 8.64525C4.698 8.17683 4.46826 7.6904 4.27367 7.18959Z"/>
    </symbol>
    <symbol xmlns="http://www.w3.org/2000/svg" id="envelope" viewBox="0 0 20 19">
        <path d="M1.05625 5.28284L9.53266 0.200836C9.67513 0.115356 9.83815 0.0702019 10.0043 0.0702019C10.1704 0.0702019 10.3334 0.115356 10.4759 0.200836L18.9441 5.28375C19.012 5.32447 19.0683 5.38209 19.1073 5.45101C19.1463 5.51993 19.1668 5.59779 19.1668 5.677V17.3333C19.1668 17.5765 19.0703 17.8096 18.8983 17.9815C18.7264 18.1534 18.4933 18.25 18.2502 18.25H1.75016C1.50705 18.25 1.27389 18.1534 1.10198 17.9815C0.930073 17.8096 0.833496 17.5765 0.833496 17.3333V5.67609C0.833479 5.59688 0.853991 5.51902 0.893029 5.4501C0.932068 5.38118 0.988302 5.32355 1.05625 5.28284ZM2.66683 6.45525V16.4167H17.3335V6.45434L10.0038 2.05434L2.66683 6.45434V6.45525ZM10.0552 11.5565L14.9098 7.46542L16.0905 8.86792L10.068 13.9435L3.91716 8.87434L5.08316 7.459L10.0552 11.5565Z"/>
    </symbol>
    <symbol xmlns="http://www.w3.org/2000/svg" id="envelope" viewBox="0 0 32 32">
        <path d="M8.47 1.318a1 1 0 0 0-.94 0l-6 3.2A1 1 0 0 0 1 5.4v.817l5.75 3.45L8 8.917l1.25.75L15 6.217V5.4a1 1 0 0 0-.53-.882l-6-3.2ZM15 7.383l-4.778 2.867L15 13.117V7.383Zm-.035 6.88L8 10.082l-6.965 4.18A1 1 0 0 0 2 15h12a1 1 0 0 0 .965-.738ZM1 13.116l4.778-2.867L1 7.383v5.734ZM7.059.435a2 2 0 0 1 1.882 0l6 3.2A2 2 0 0 1 16 5.4V14a2 2 0 0 1-2 2H2a2 2 0 0 1-2-2V5.4a2 2 0 0 1 1.059-1.765l6-3.2Z"/>
    </symbol>
    <symbol viewBox="0 0 21 21" id="target" xmlns="http://www.w3.org/2000/svg">
        <path d="M4.18413 3.05157L11.7571 10.7946L10.3741 12.2086L7.00381 8.76256C6.57087 9.5131 6.38947 10.3877 6.48718 11.2533C6.58489 12.1189 6.95637 12.9282 7.54514 13.5581C8.13392 14.1881 8.90777 14.6043 9.74906 14.7434C10.5904 14.8824 11.453 14.7368 12.206 14.3287C12.9589 13.9206 13.5609 13.2722 13.9205 12.4822C14.28 11.6922 14.3774 10.8037 14.1979 9.95193C14.0183 9.10013 13.5717 8.33158 12.9258 7.76312C12.2799 7.19465 11.4701 6.85738 10.6196 6.80256L8.85426 4.99756C10.1885 4.63172 11.6063 4.7589 12.8579 5.3567C14.1095 5.9545 15.1147 6.9846 15.6965 8.26564C16.2784 9.54669 16.3996 10.9965 16.0387 12.36C15.6779 13.7234 14.8582 14.9129 13.724 15.7192C12.5898 16.5255 11.2137 16.8968 9.83804 16.7677C8.46239 16.6386 7.17537 16.0175 6.20357 15.0137C5.23177 14.0098 4.63749 12.6876 4.52535 11.2798C4.41322 9.87206 4.79042 8.46896 5.59055 7.31756L4.19293 5.88856C3.02661 7.42591 2.44821 9.34516 2.566 11.2871C2.68379 13.229 3.4897 15.0605 4.83287 16.4387C6.17605 17.8169 7.96442 18.6474 9.86326 18.7747C11.7621 18.9021 13.6412 18.3175 15.149 17.1304C16.6567 15.9434 17.6896 14.2352 18.0545 12.3257C18.4193 10.4161 18.091 8.43607 17.131 6.75614C16.1711 5.07621 14.6452 3.81155 12.8391 3.19887C11.033 2.5862 9.07045 2.6675 7.31874 3.42757L5.84973 1.92657C7.2461 1.18059 8.79864 0.792142 10.3741 0.794567C15.7758 0.794567 20.1545 5.27156 20.1545 10.7946C20.1545 16.3176 15.7758 20.7946 10.3741 20.7946C4.97243 20.7946 0.593755 16.3176 0.593755 10.7946C0.592281 9.31232 0.913742 7.84835 1.53479 6.50901C2.15583 5.16967 3.06086 3.98859 4.18413 3.05157Z"/>
    </symbol>
    <symbol viewBox="0 0 19 19" id="pen" xmlns="http://www.w3.org/2000/svg">
        <path d="M14.9159 9.50469L14.2245 8.79769L4.5419 18.6977H0.393066V14.4547L11.4576 3.14069L16.9904 8.79769C17.1737 8.98522 17.2767 9.23952 17.2767 9.50469C17.2767 9.76985 17.1737 10.0242 16.9904 10.2117L10.0756 17.2827L8.69172 15.8687L14.9159 9.50469ZM12.8415 7.38369L11.4576 5.96969L2.34914 15.2827V16.6977H3.73209L12.8415 7.38369ZM15.6074 0.312684L18.3743 3.14069C18.5576 3.32821 18.6606 3.58252 18.6606 3.84769C18.6606 4.11285 18.5576 4.36716 18.3743 4.55469L16.9904 5.96969L12.8415 1.72668L14.2245 0.312684C14.4079 0.125213 14.6566 0.0198975 14.9159 0.0198975C15.1753 0.0198975 15.424 0.125213 15.6074 0.312684Z"/>
    </symbol>
    <symbol viewBox="0 0 20 21" id="star" xmlns="http://www.w3.org/2000/svg">
        <path d="M12.807 8.31381C12.3828 7.90293 12.1099 7.35522 12.0343 6.76281L11.6402 3.67981L8.97011 5.16581C8.45673 5.45183 7.86264 5.54824 7.28788 5.43881L4.29899 4.86881L4.85647 7.92481C4.9635 8.51248 4.86921 9.11991 4.58947 9.64481L3.1361 12.3748L6.1514 12.7778C6.73045 12.8553 7.26575 13.1343 7.66736 13.5678L9.75841 15.8248L11.0651 13.0178C11.3159 12.4784 11.7407 12.0437 12.2681 11.7868L15.0144 10.4508L12.807 8.31381ZM12.8314 13.8768L10.667 18.5268C10.6261 18.6147 10.5648 18.6911 10.4885 18.7494C10.4122 18.8077 10.3232 18.8462 10.2291 18.8615C10.1351 18.8767 10.0388 18.8683 9.94859 18.837C9.8584 18.8057 9.77701 18.7525 9.71146 18.6818L6.24725 14.9428C6.1547 14.843 6.03143 14.7788 5.89809 14.7608L0.903237 14.0928C0.808868 14.0801 0.718939 14.0441 0.641208 13.9879C0.563476 13.9318 0.500274 13.8571 0.457052 13.7704C0.413831 13.6837 0.391888 13.5875 0.393115 13.4902C0.394343 13.3929 0.418704 13.2974 0.464097 13.2118L2.87203 8.68781C2.93604 8.56682 2.95745 8.42701 2.93267 8.29181L2.01038 3.22881C1.99286 3.13297 1.99845 3.03422 2.02666 2.94109C2.05487 2.84797 2.10485 2.76327 2.17227 2.69433C2.23969 2.6254 2.32253 2.5743 2.41361 2.54545C2.50469 2.51661 2.60128 2.5109 2.69501 2.5288L7.64682 3.47181C7.77906 3.49714 7.91579 3.47526 8.03412 3.40981L12.4588 0.947804C12.5425 0.901378 12.636 0.87649 12.7313 0.87529C12.8265 0.874089 12.9206 0.896612 13.0054 0.940913C13.0903 0.985213 13.1633 1.04996 13.2182 1.12956C13.273 1.20916 13.3081 1.30123 13.3204 1.3978L13.9738 6.50381C13.9913 6.64015 14.0542 6.76618 14.1518 6.86081L17.8087 10.4028C17.8777 10.4698 17.9299 10.553 17.9605 10.6453C17.9911 10.7375 17.9993 10.8359 17.9843 10.9321C17.9694 11.0283 17.9318 11.1193 17.8748 11.1973C17.8178 11.2753 17.743 11.3379 17.6571 11.3798L13.1092 13.5928C12.9874 13.652 12.8893 13.7523 12.8314 13.8768ZM13.6109 15.8038L14.9939 14.3898L19.1437 18.6318L17.7598 20.0468L13.6109 15.8038Z"/>
    </symbol>
    <symbol viewBox="0 0 20 20" id="radio" xmlns="http://www.w3.org/2000/svg">
        <path d="M10.3931 10.6888L16.3931 19.6888H4.39308L10.3931 10.6888ZM10.3931 14.2888L8.13308 17.6888H12.6531L10.3931 14.2888ZM9.33308 8.2488C9.18571 8.11148 9.06751 7.94588 8.98552 7.76188C8.90354 7.57788 8.85946 7.37925 8.8559 7.17785C8.85235 6.97644 8.8894 6.77638 8.96484 6.58961C9.04028 6.40283 9.15257 6.23316 9.29501 6.09072C9.43745 5.94829 9.60711 5.836 9.79389 5.76056C9.98067 5.68511 10.1807 5.64807 10.3821 5.65162C10.5835 5.65517 10.7822 5.69926 10.9662 5.78124C11.1502 5.86322 11.3158 5.98143 11.4531 6.1288C11.718 6.41315 11.8623 6.78924 11.8554 7.17785C11.8486 7.56645 11.6912 7.93722 11.4163 8.21205C11.1415 8.48687 10.7707 8.6443 10.3821 8.65115C9.99353 8.65801 9.61743 8.51376 9.33308 8.2488ZM3.67408 0.471802L5.08908 1.8868C3.68275 3.2933 2.89269 5.20083 2.89269 7.1898C2.89269 9.17878 3.68275 11.0863 5.08908 12.4928L3.67408 13.9078C2.79178 13.0256 2.09189 11.9783 1.61439 10.8256C1.13688 9.67293 0.891113 8.43748 0.891113 7.1898C0.891113 5.94213 1.13688 4.70667 1.61439 3.55399C2.09189 2.40131 2.79178 1.35398 3.67408 0.471802ZM17.1101 0.471802C17.9924 1.35398 18.6923 2.40131 19.1698 3.55399C19.6473 4.70667 19.8931 5.94213 19.8931 7.1898C19.8931 8.43748 19.6473 9.67293 19.1698 10.8256C18.6923 11.9783 17.9924 13.0256 17.1101 13.9078L15.6951 12.4928C17.1014 11.0863 17.8915 9.17878 17.8915 7.1898C17.8915 5.20083 17.1014 3.2933 15.6951 1.8868L17.1101 0.471802ZM6.50308 3.2998L7.91708 4.7138C7.59204 5.03881 7.3342 5.42466 7.15829 5.84933C6.98237 6.27399 6.89183 6.72915 6.89183 7.1888C6.89183 7.64846 6.98237 8.10361 7.15829 8.52828C7.3342 8.95294 7.59204 9.33879 7.91708 9.6638L6.50308 11.0778C5.47169 10.0464 4.89226 8.64745 4.89226 7.1888C4.89226 5.73015 5.47169 4.33124 6.50308 3.2998ZM14.2811 3.2998C15.3125 4.33124 15.8919 5.73015 15.8919 7.1888C15.8919 8.64745 15.3125 10.0464 14.2811 11.0778L12.8671 9.6638C13.1921 9.33879 13.45 8.95294 13.6259 8.52828C13.8018 8.10361 13.8923 7.64846 13.8923 7.1888C13.8923 6.72915 13.8018 6.27399 13.6259 5.84933C13.45 5.42466 13.1921 5.03881 12.8671 4.7138L14.2811 3.2998Z"/>
    </symbol>
    <symbol viewBox="0 0 21 18" id="calendar" xmlns="http://www.w3.org/2000/svg">
        <path d="M18.0117 6V2H2.01172V6H18.0117ZM18.0117 8H2.01172V16H18.0117V8ZM1.01172 0H19.0117C19.2769 0 19.5313 0.105357 19.7188 0.292893C19.9064 0.48043 20.0117 0.734784 20.0117 1V17C20.0117 17.2652 19.9064 17.5196 19.7188 17.7071C19.5313 17.8946 19.2769 18 19.0117 18H1.01172C0.746502 18 0.492148 17.8946 0.304612 17.7071C0.117076 17.5196 0.0117188 17.2652 0.0117188 17V1C0.0117188 0.734784 0.117076 0.48043 0.304612 0.292893C0.492148 0.105357 0.746502 0 1.01172 0ZM3.01172 9H6.01172V14H3.01172V9ZM3.01172 3H5.01172V5H3.01172V3ZM7.01172 3H9.01172V5H7.01172V3Z"/>
    </symbol>
    <symbol viewBox="0 0 20 18" id="ab" xmlns="http://www.w3.org/2000/svg">
        <path d="M2.5 12V14C2.5 15.054 3.45 16 4.5 16H7.5V18H4.5C3.43913 18 2.42172 17.5786 1.67157 16.8284C0.921427 16.0783 0.5 15.0609 0.5 14V12H2.5ZM15.5 7L19.9 18H17.745L16.544 15H12.454L11.255 18H9.101L13.5 7H15.5ZM14.5 9.885L13.253 13H15.745L14.5 9.885ZM0.5 0H6.5C7.07904 0.0002061 7.64564 0.167979 8.13144 0.483072C8.61724 0.798166 9.00147 1.24711 9.23776 1.77574C9.47406 2.30437 9.55232 2.89009 9.46311 3.46221C9.3739 4.03433 9.12102 4.56841 8.735 5C9.12102 5.43159 9.3739 5.96567 9.46311 6.53779C9.55232 7.10991 9.47406 7.69563 9.23776 8.22426C9.00147 8.75288 8.61724 9.20183 8.13144 9.51693C7.64564 9.83202 7.07904 9.99979 6.5 10H0.5V0ZM6.5 6H2.5V8H6.5C6.76522 8 7.01957 7.89464 7.20711 7.70711C7.39464 7.51957 7.5 7.26522 7.5 7C7.5 6.73478 7.39464 6.48043 7.20711 6.29289C7.01957 6.10536 6.76522 6 6.5 6ZM14.5 0C15.5609 0 16.5783 0.421427 17.3284 1.17157C18.0786 1.92172 18.5 2.93913 18.5 4V6H16.5V4C16.5 3.46957 16.2893 2.96086 15.9142 2.58579C15.5391 2.21071 15.0304 2 14.5 2H11.5V0H14.5ZM6.5 2H2.5V4H6.5C6.76522 4 7.01957 3.89464 7.20711 3.70711C7.39464 3.51957 7.5 3.26522 7.5 3C7.5 2.73478 7.39464 2.48043 7.20711 2.29289C7.01957 2.10536 6.76522 2 6.5 2Z"/>
    </symbol>
    <symbol viewBox="0 0 21 21" id="arrow" xmlns="http://www.w3.org/2000/svg">
        <path d="M14.0117 11L20.9757 15.062L18.0027 15.912L20.1277 19.593L18.3957 20.593L16.2707 16.913L14.0477 19.063L14.0117 11ZM12.0117 4H14.0117V6H19.0117C19.2769 6 19.5313 6.10536 19.7188 6.29289C19.9064 6.48043 20.0117 6.73478 20.0117 7V11H18.0117V8H8.01172V18H12.0117V20H7.01172C6.7465 20 6.49215 19.8946 6.30461 19.7071C6.11708 19.5196 6.01172 19.2652 6.01172 19V14H4.01172V12H6.01172V7C6.01172 6.73478 6.11708 6.48043 6.30461 6.29289C6.49215 6.10536 6.7465 6 7.01172 6H12.0117V4ZM2.01172 12V14H0.0117188V12H2.01172ZM2.01172 8V10H0.0117188V8H2.01172ZM2.01172 4V6H0.0117188V4H2.01172ZM2.01172 0V2H0.0117188V0H2.01172ZM6.01172 0V2H4.01172V0H6.01172ZM10.0117 0V2H8.01172V0H10.0117ZM14.0117 0V2H12.0117V0H14.0117Z"/>
    </symbol>
    <symbol viewBox="0 0 15 19" id="pin" xmlns="http://www.w3.org/2000/svg">
        <path d="M12.7656 13.3988L7.49344 18.6709L2.22134 13.3988C1.17863 12.3561 0.468534 11.0276 0.180856 9.58127C-0.106822 8.13498 0.0408342 6.63587 0.605152 5.27349C1.16947 3.91112 2.1251 2.74668 3.35121 1.92743C4.57731 1.10817 6.01882 0.670898 7.49344 0.670898C8.96807 0.670898 10.4096 1.10817 11.6357 1.92743C12.8618 2.74668 13.8174 3.91112 14.3817 5.27349C14.9461 6.63587 15.0937 8.13498 14.806 9.58127C14.5184 11.0276 13.8083 12.3561 12.7656 13.3988ZM7.49344 9.78353C7.93287 9.78353 8.3543 9.60897 8.66502 9.29825C8.97574 8.98753 9.1503 8.5661 9.1503 8.12668C9.1503 7.68725 8.97574 7.26583 8.66502 6.95511C8.3543 6.64438 7.93287 6.46982 7.49344 6.46982C7.05402 6.46982 6.63259 6.64438 6.32187 6.95511C6.01115 7.26583 5.83659 7.68725 5.83659 8.12668C5.83659 8.5661 6.01115 8.98753 6.32187 9.29825C6.63259 9.60897 7.05402 9.78353 7.49344 9.78353Z"/>
    </symbol>
    <symbol viewBox="0 0 19 17" id="envelope-closed" xmlns="http://www.w3.org/2000/svg">
        <path d="M13.7855 6.43728C14.5972 6.83257 15.5164 6.94959 16.4012 6.77028V15.8521C16.4012 16.0691 16.315 16.2772 16.1616 16.4306C16.0082 16.5841 15.8 16.6703 15.5831 16.6703H0.855779C0.638784 16.6703 0.430676 16.5841 0.277238 16.4306C0.123799 16.2772 0.0375977 16.0691 0.0375977 15.8521V2.76119C0.0375977 2.54419 0.123799 2.33608 0.277238 2.18264C0.430676 2.02921 0.638784 1.943 0.855779 1.943H11.574C11.52 2.20728 11.4921 2.48137 11.4921 2.76119C11.4908 3.73323 11.837 4.67373 12.4682 5.41291L8.26932 9.04728L3.02151 4.59228L1.96278 5.83919L8.27914 11.2024L13.7855 6.43728ZM15.5831 5.21573C15.2607 5.21573 14.9415 5.15224 14.6437 5.02889C14.3459 4.90554 14.0754 4.72474 13.8474 4.49681C13.6195 4.26889 13.4387 3.9983 13.3153 3.7005C13.192 3.4027 13.1285 3.08352 13.1285 2.76119C13.1285 2.43885 13.192 2.11967 13.3153 1.82187C13.4387 1.52407 13.6195 1.25349 13.8474 1.02556C14.0754 0.797635 14.3459 0.616834 14.6437 0.493482C14.9415 0.370129 15.2607 0.306641 15.5831 0.306641C16.234 0.306641 16.8584 0.565244 17.3187 1.02556C17.779 1.48588 18.0376 2.1102 18.0376 2.76119C18.0376 3.41217 17.779 4.0365 17.3187 4.49681C16.8584 4.95713 16.234 5.21573 15.5831 5.21573Z"/>
    </symbol>
    <symbol viewBox="0 0 19 19" id="phone-full" xmlns="http://www.w3.org/2000/svg">
        <path d="M18.0376 14.0904V17.6264C18.0377 17.8796 17.9418 18.1234 17.7692 18.3086C17.5966 18.4938 17.3602 18.6067 17.1076 18.6244C16.6706 18.6544 16.3136 18.6704 16.0376 18.6704C7.2006 18.6704 0.0375977 11.5074 0.0375977 2.67041C0.0375977 2.39441 0.0525977 2.03741 0.0835977 1.60041C0.10132 1.34785 0.214179 1.11142 0.399401 0.938819C0.584624 0.766217 0.828421 0.670296 1.0816 0.67041H4.6176C4.74164 0.670285 4.86129 0.716269 4.95333 0.799431C5.04536 0.882592 5.10319 0.996993 5.1156 1.12041C5.1386 1.35041 5.1596 1.53341 5.1796 1.67241C5.37833 3.05933 5.7856 4.40824 6.3876 5.67341C6.4826 5.87341 6.4206 6.11241 6.2406 6.24041L4.0826 7.78241C5.40205 10.8569 7.85215 13.307 10.9266 14.6264L12.4666 12.4724C12.5295 12.3844 12.6214 12.3213 12.7261 12.2941C12.8308 12.2668 12.9418 12.2772 13.0396 12.3234C14.3046 12.9243 15.6532 13.3305 17.0396 13.5284C17.1786 13.5484 17.3616 13.5704 17.5896 13.5924C17.7128 13.605 17.827 13.663 17.9099 13.755C17.9929 13.847 18.0387 13.9665 18.0386 14.0904H18.0376Z"/>
    </symbol>
    <symbol viewBox="0 0 21 21" id="burger" xmlns="http://www.w3.org/2000/svg">
        <line y1="0.500004" x2="21" y2="0.500004"/>
        <line y1="10.5" x2="21" y2="10.5"/>
        <line y1="20.5" x2="21" y2="20.5"/>
    </symbol>

</svg>